<svg width="231" height="122" viewBox="0 0 231 122" fill="none" xmlns="http://www.w3.org/2000/svg">
<path d="M12.872 55.4C10.1413 55.4 7.83733 54.4613 5.96 52.584C5.78933 52.4133 5.59733 52.2 5.384 51.944C5.21333 51.7307 5.128 51.496 5.128 51.24C5.128 50.8987 5.256 50.7067 5.512 50.664C5.768 50.664 5.91733 50.6427 5.96 50.6C6.216 50.3867 6.344 50.1307 6.344 49.832C6.344 49.576 6.36533 49.2987 6.408 49C6.49333 48.4453 6.77067 47.8267 7.24 47.144C7.752 46.4613 8.328 46.12 8.968 46.12C9.05333 46.12 9.096 46.1627 9.096 46.248C9.096 46.4187 8.94667 46.6533 8.648 46.952C8.34933 47.208 8.02933 47.5493 7.688 47.976C7.38933 48.4027 7.24 48.8933 7.24 49.448C7.24 50.344 7.64533 51.0693 8.456 51.624C9.30933 52.2213 10.2693 52.648 11.336 52.904C12.4453 53.16 13.3413 53.288 14.024 53.288C16.1147 53.288 18.0773 52.6907 19.912 51.496C21.7467 50.344 23.4533 48.808 25.032 46.888C26.6107 44.968 28.04 42.8987 29.32 40.68C30.6427 38.4187 31.7947 36.2213 32.776 34.088C33.8 31.9547 34.6533 30.0987 35.336 28.52C35.2507 28.3067 35.0587 27.88 34.76 27.24C34.504 26.6 34.376 26.1947 34.376 26.024C34.376 25.512 34.7173 25.1493 35.4 24.936C36.0827 24.68 36.5947 24.5307 36.936 24.488C37.96 21.9707 38.92 19.432 39.816 16.872C40.7547 14.2693 41.7147 11.7093 42.696 9.192C39.5813 8.33867 36.488 7.54933 33.416 6.824C30.344 6.09866 27.1653 5.736 23.88 5.736C22.344 5.736 20.68 5.88533 18.888 6.184C17.1387 6.44 15.496 6.952 13.96 7.72C12.424 8.44533 11.1867 9.512 10.248 10.92C9.90667 11.4747 9.62933 12.072 9.416 12.712C9.20267 13.3093 9.096 13.9493 9.096 14.632C9.096 16.424 9.62933 17.9387 10.696 19.176C11.7627 20.3707 13.0853 21.2667 14.664 21.864C16.2427 22.4613 17.8213 22.76 19.4 22.76C20.04 22.76 20.6373 22.632 21.192 22.376C21.7467 22.0773 22.2373 21.7147 22.664 21.288C22.792 21.3307 22.856 21.416 22.856 21.544C22.856 21.7147 22.8347 21.8427 22.792 21.928C22.2373 22.7387 21.4907 23.2933 20.552 23.592C19.6133 23.848 18.6747 23.976 17.736 23.976C15.944 23.976 14.1947 23.6347 12.488 22.952C10.824 22.2693 9.43733 21.2453 8.328 19.88C7.26133 18.5147 6.728 16.8293 6.728 14.824C6.728 13.9707 6.83467 13.16 7.048 12.392C7.304 11.5813 7.64533 10.8133 8.072 10.088C9.096 8.38133 10.4613 7.05867 12.168 6.12C13.8747 5.13867 15.7093 4.456 17.672 4.072C19.6773 3.688 21.5973 3.496 23.432 3.496C26.8453 3.496 30.216 3.92266 33.544 4.776C36.872 5.62933 40.1787 6.52533 43.464 7.464C43.8053 6.73867 44.3173 6.03467 45 5.352C45.6827 4.66933 46.472 4.328 47.368 4.328C47.8373 4.328 48.264 4.47733 48.648 4.776C49.0747 5.032 49.3093 5.416 49.352 5.928C48.9253 6.09866 48.4987 6.46133 48.072 7.016C47.688 7.57067 47.368 8.06133 47.112 8.488C47.6667 8.616 48.2427 8.76533 48.84 8.936C49.4373 9.064 50.0133 9.128 50.568 9.128C51.1227 9.128 51.6347 8.97866 52.104 8.68C52.5733 8.33867 52.872 8.168 53 8.168C53.0853 8.168 53.128 8.21067 53.128 8.296C53.128 8.85066 52.744 9.384 51.976 9.896C51.2507 10.408 50.6533 10.664 50.184 10.664C49.544 10.664 48.8827 10.6 48.2 10.472C47.5173 10.344 46.856 10.216 46.216 10.088C44.8507 12.7333 43.5707 15.4427 42.376 18.216C41.224 20.9893 40.0293 23.7627 38.792 26.536L38.984 26.984C41.8 23.7413 44.5947 20.84 47.368 18.28C50.184 15.6773 53.1493 13.3093 56.264 11.176C59.4213 9 62.8987 6.97333 66.696 5.096C67.4213 4.712 68.168 4.41333 68.936 4.2C69.7467 3.98666 70.5573 3.88 71.368 3.88C72.8187 3.88 74.2267 4.15733 75.592 4.712C76.104 4.88266 76.7013 5.24533 77.384 5.8C78.1093 6.312 78.472 6.888 78.472 7.528C78.472 7.74133 78.3867 7.848 78.216 7.848C77.96 7.848 77.704 7.69867 77.448 7.4C77.2347 7.05866 76.8933 6.73866 76.424 6.44C75.9973 6.09866 75.3573 5.928 74.504 5.928C73.4373 5.928 72.264 6.184 70.984 6.696C69.704 7.16533 68.5733 7.63466 67.592 8.104C62.4293 10.5787 57.4373 13.544 52.616 17C47.7947 20.456 43.4853 24.3387 39.688 28.648C40.1147 29.7147 40.776 31.08 41.672 32.744C42.568 34.3653 43.592 36.0933 44.744 37.928C45.9387 39.72 47.1973 41.4267 48.52 43.048C49.8853 44.6267 51.272 45.928 52.68 46.952C54.088 47.976 55.4533 48.488 56.776 48.488C58.3973 48.488 59.6133 47.7413 60.424 46.248C61.2347 44.712 61.8533 42.8773 62.28 40.744H62.344C62.4293 40.744 62.472 40.8933 62.472 41.192C62.5147 41.448 62.536 41.6187 62.536 41.704C62.536 42.1307 62.472 42.5787 62.344 43.048C62.216 43.688 62.1307 44.328 62.088 44.968C62.0453 45.608 61.9173 46.2267 61.704 46.824C61.2347 48.1467 60.5307 49.192 59.592 49.96C58.6533 50.7707 57.4373 51.176 55.944 51.176C54.2373 51.176 52.5947 50.728 51.016 49.832C49.4373 48.936 47.9227 47.784 46.472 46.376C45.064 44.9253 43.7627 43.3467 42.568 41.64C41.3733 39.8907 40.2853 38.184 39.304 36.52C38.3653 34.8133 37.576 33.2987 36.936 31.976C34.4613 36.456 31.944 40.4667 29.384 44.008C26.824 47.5493 24.1787 50.3227 21.448 52.328C18.7173 54.376 15.8587 55.4 12.872 55.4ZM66.1685 49.128C65.4858 49.128 65.0378 48.872 64.8245 48.36C64.6538 47.8053 64.5685 47.2507 64.5685 46.696C64.5685 44.6907 64.9525 42.536 65.7205 40.232C66.4885 37.928 67.4912 35.7307 68.7285 33.64C69.9658 31.5067 71.3098 29.7573 72.7605 28.392C74.2965 26.984 76.1098 26.28 78.2005 26.28C79.0538 26.28 79.8858 26.3867 80.6965 26.6C81.5498 26.7707 82.3818 27.0267 83.1925 27.368C83.9178 26.856 84.7072 26.408 85.5605 26.024C86.4138 25.64 87.2885 25.448 88.1845 25.448C88.3978 25.448 88.5685 25.576 88.6965 25.832V26.024C88.6965 26.152 88.6325 26.216 88.5045 26.216C88.4192 26.1733 88.3338 26.152 88.2485 26.152C87.5658 26.152 86.8192 26.6853 86.0085 27.752C85.1978 28.776 84.3872 30.0987 83.5765 31.72C82.7658 33.3413 82.0192 35.048 81.3365 36.84C80.6965 38.632 80.1632 40.2747 79.7365 41.768C79.3525 43.2613 79.1605 44.392 79.1605 45.16C79.1605 45.4587 79.2032 45.8 79.2885 46.184C79.4165 46.568 79.6725 46.76 80.0565 46.76C80.2698 46.76 80.4405 46.7173 80.5685 46.632C80.7392 46.5467 80.9098 46.4613 81.0805 46.376C82.0192 45.8213 82.9365 45.0747 83.8325 44.136C84.7712 43.1547 85.6245 42.1093 86.3925 41C87.2032 39.848 87.8645 38.8027 88.3765 37.864C88.4192 37.9067 88.4405 37.992 88.4405 38.12C88.4405 38.376 88.2912 38.76 87.9925 39.272C87.6938 39.7413 87.3525 40.2533 86.9685 40.808C86.5845 41.3627 86.2218 41.8533 85.8805 42.28C85.5818 42.7067 85.4325 42.9627 85.4325 43.048C85.3898 43.3467 85.3258 43.6027 85.2405 43.816C85.1552 43.9867 85.0272 44.2213 84.8565 44.52C84.3018 45.0747 83.5978 45.7147 82.7445 46.44C81.8912 47.1653 80.9952 47.8053 80.0565 48.36C79.1605 48.872 78.2858 49.128 77.4325 49.128C76.1098 49.128 75.4485 48.424 75.4485 47.016C75.4485 46.1627 75.6192 45.1813 75.9605 44.072C76.3445 42.92 76.7712 41.7893 77.2405 40.68C77.7525 39.528 78.2005 38.568 78.5845 37.8C78.5845 37.7573 78.5845 37.6933 78.5845 37.608C78.5845 37.5227 78.5632 37.48 78.5205 37.48C78.4778 37.48 78.4138 37.5227 78.3285 37.608C77.8165 38.2907 77.0698 39.272 76.0885 40.552C75.1072 41.832 74.0192 43.1333 72.8245 44.456C71.6725 45.736 70.4992 46.8453 69.3045 47.784C68.1098 48.68 67.0645 49.128 66.1685 49.128ZM68.9845 46.376C69.4538 46.376 70.0298 46.0773 70.7125 45.48C71.4378 44.84 72.1845 44.0933 72.9525 43.24C73.7632 42.344 74.4672 41.4907 75.0645 40.68C75.7045 39.8693 76.1525 39.272 76.4085 38.888C76.9205 38.12 77.4965 37.16 78.1365 36.008C78.8192 34.856 79.3952 33.6613 79.8645 32.424C80.3765 31.1867 80.6325 30.1413 80.6325 29.288C80.6325 27.9653 79.9712 27.304 78.6485 27.304C77.8805 27.304 77.0698 27.6453 76.2165 28.328C75.3632 29.0107 74.6805 29.6293 74.1685 30.184C73.6138 30.8667 72.9738 31.848 72.2485 33.128C71.5658 34.408 70.9258 35.7947 70.3285 37.288C69.7312 38.7813 69.2192 40.2107 68.7925 41.576C68.4085 42.9413 68.2165 44.072 68.2165 44.968C68.2165 45.224 68.2592 45.5227 68.3445 45.864C68.4298 46.2053 68.6432 46.376 68.9845 46.376ZM83.836 49.832C83.7933 49.832 83.772 49.8107 83.772 49.768C83.772 49.5973 83.8573 49.4267 84.028 49.256C84.156 49.0853 84.2413 48.9573 84.284 48.872C84.5827 48.4027 84.9453 47.6133 85.372 46.504C85.756 45.352 86.14 44.072 86.524 42.664C86.9507 41.2133 87.3347 39.7627 87.676 38.312C88.06 36.8187 88.4013 35.4533 88.7 34.216C88.9987 32.9787 89.212 32.04 89.34 31.4C89.4253 31.0587 89.5107 30.6107 89.596 30.056C89.6813 29.5013 89.8093 28.9467 89.98 28.392C90.1507 27.8373 90.3427 27.4747 90.556 27.304C90.9827 26.9627 91.5587 26.664 92.284 26.408C93.052 26.152 93.8413 25.96 94.652 25.832C95.4627 25.6613 96.124 25.576 96.636 25.576C96.7213 25.576 96.828 25.6187 96.956 25.704C97.084 25.7893 97.1693 25.8747 97.212 25.96V26.152C97.212 26.28 97.1693 26.344 97.084 26.344C96.9987 26.3013 96.9133 26.28 96.828 26.28C95.8893 26.28 95.0573 26.8133 94.332 27.88C93.6067 28.904 92.988 30.184 92.476 31.72C91.964 33.2133 91.5373 34.664 91.196 36.072C90.8547 37.48 90.5987 38.5467 90.428 39.272C91.7933 36.9253 93.3507 34.6853 95.1 32.552C96.892 30.376 98.9827 28.6267 101.372 27.304C101.671 27.1333 102.012 26.9627 102.396 26.792C102.78 26.5787 103.121 26.472 103.42 26.472C103.975 26.472 104.316 26.728 104.444 27.24C104.572 27.7093 104.636 28.1573 104.636 28.584C104.636 29.1387 104.444 29.9493 104.06 31.016C103.676 32.0827 103.228 33.1493 102.716 34.216C102.247 35.24 101.884 36.0507 101.628 36.648C101.372 37.3307 101.073 38.2053 100.732 39.272C100.391 40.3387 100.092 41.4053 99.836 42.472C99.58 43.5387 99.452 44.4347 99.452 45.16C99.452 45.4587 99.4947 45.8 99.58 46.184C99.6653 46.568 99.9 46.76 100.284 46.76C100.497 46.76 100.668 46.7173 100.796 46.632C100.967 46.5467 101.137 46.4613 101.308 46.376C102.289 45.8213 103.228 45.0747 104.124 44.136C105.063 43.1547 105.916 42.1093 106.684 41C107.452 39.848 108.092 38.8027 108.604 37.864C108.647 37.9067 108.668 37.992 108.668 38.12C108.668 38.376 108.519 38.76 108.22 39.272C107.921 39.7413 107.58 40.2533 107.196 40.808C106.812 41.3627 106.449 41.8533 106.108 42.28C105.809 42.7067 105.66 42.9627 105.66 43.048C105.617 43.3467 105.553 43.6027 105.468 43.816C105.383 43.9867 105.276 44.2213 105.148 44.52C104.636 45.032 103.889 45.672 102.908 46.44C101.969 47.1653 100.988 47.8267 99.964 48.424C98.9827 48.9787 98.108 49.256 97.34 49.256C96.6573 49.256 96.188 49 95.932 48.488C95.7187 47.9333 95.612 47.3573 95.612 46.76C95.612 45.608 95.8467 44.2427 96.316 42.664C96.7853 41.0427 97.34 39.4427 97.98 37.864C98.62 36.2427 99.1533 34.8773 99.58 33.768C99.708 33.4267 99.9 32.8933 100.156 32.168C100.455 31.4427 100.604 30.9307 100.604 30.632C100.604 30.4187 100.561 30.184 100.476 29.928C100.433 29.672 100.241 29.544 99.9 29.544C99.4733 29.544 98.9187 29.8213 98.236 30.376C97.596 30.9307 97.1053 31.3787 96.764 31.72C94.9293 33.768 93.3507 36.0507 92.028 38.568C90.7053 41.0427 89.596 43.6027 88.7 46.248C88.572 46.5893 88.4867 46.8453 88.444 47.016C88.444 47.144 88.2733 47.3147 87.932 47.528C87.804 47.6133 87.3987 47.848 86.716 48.232C86.076 48.616 85.4573 48.9787 84.86 49.32C84.22 49.6613 83.8787 49.832 83.836 49.832ZM107.803 49C107.333 49 106.928 48.7867 106.587 48.36C106.288 47.9333 106.053 47.4427 105.883 46.888C105.755 46.3333 105.691 45.864 105.691 45.48C105.691 43.6027 106.075 41.5973 106.843 39.464C107.653 37.288 108.677 35.2187 109.915 33.256C111.152 31.2507 112.432 29.6293 113.755 28.392C114.523 27.6667 115.397 27.1333 116.379 26.792C117.403 26.4507 118.427 26.28 119.451 26.28C120.133 26.28 120.859 26.3653 121.627 26.536C122.437 26.7067 123.12 27.0053 123.675 27.432C123.675 27.4747 123.675 27.5173 123.675 27.56C123.717 27.56 123.739 27.5813 123.739 27.624C123.739 27.7093 123.717 27.752 123.675 27.752H123.611L123.163 27.624C123.291 28.008 123.355 28.392 123.355 28.776C123.355 29.16 123.248 29.736 123.035 30.504C122.821 31.2293 122.565 31.9333 122.267 32.616C121.968 33.2987 121.648 33.7467 121.307 33.96C121.307 33.96 121.264 33.96 121.179 33.96C121.051 33.96 120.987 33.8533 120.987 33.64C120.987 33.5547 121.029 33.4693 121.115 33.384C121.2 33.2987 121.264 33.2133 121.307 33.128C121.52 32.6587 121.669 32.1893 121.755 31.72C121.883 31.2507 121.947 30.7813 121.947 30.312C121.947 29.5867 121.776 28.904 121.435 28.264C121.093 27.624 120.496 27.304 119.643 27.304C118.875 27.304 118.064 27.6453 117.211 28.328C116.357 29.0107 115.675 29.6293 115.163 30.184C114.309 31.1653 113.435 32.5093 112.539 34.216C111.685 35.88 110.96 37.608 110.363 39.4C109.765 41.192 109.467 42.7493 109.467 44.072C109.467 44.6693 109.573 45.2453 109.786 45.8C110.043 46.312 110.533 46.568 111.259 46.568C112.325 46.568 113.456 46.2053 114.651 45.48C115.845 44.712 117.04 43.7947 118.235 42.728C119.429 41.6187 120.517 40.5307 121.499 39.464C122.523 38.3547 123.355 37.4373 123.995 36.712C124.677 35.944 125.061 35.56 125.147 35.56C125.275 35.56 125.339 35.6667 125.339 35.88C125.339 35.9653 125.317 36.0507 125.275 36.136C125.275 36.2213 125.253 36.3067 125.211 36.392C124.144 37.8 122.992 39.2507 121.755 40.744C120.56 42.1947 119.237 43.56 117.787 44.84C116.379 46.0773 114.843 47.08 113.179 47.848C111.515 48.616 109.723 49 107.803 49ZM125.718 49.256C123.243 49.256 122.006 47.9973 122.006 45.48C122.006 43.6027 122.39 41.5973 123.158 39.464C123.926 37.288 124.929 35.2187 126.166 33.256C127.403 31.2507 128.705 29.6293 130.07 28.392C131.691 26.984 133.59 26.28 135.766 26.28C136.278 26.28 136.897 26.344 137.622 26.472C138.39 26.6 139.051 26.856 139.606 27.24C140.161 27.5813 140.438 28.0933 140.438 28.776C140.438 29.7573 140.075 30.888 139.35 32.168C138.625 33.4053 137.963 34.408 137.366 35.176C137.579 35.2187 137.835 35.2827 138.134 35.368C138.475 35.4533 138.646 35.624 138.646 35.88C138.646 36.008 138.539 36.072 138.326 36.072C137.942 36.072 137.558 36.0293 137.174 35.944C136.79 35.8587 136.406 35.816 136.022 35.816C134.571 35.816 133.078 36.0293 131.542 36.456C130.049 36.8827 128.619 37.3307 127.254 37.8C126.827 38.824 126.443 39.9547 126.102 41.192C125.803 42.4293 125.654 43.6027 125.654 44.712C125.654 45.5227 125.803 46.248 126.102 46.888C126.443 47.528 127.083 47.848 128.022 47.848C129.174 47.848 130.347 47.528 131.542 46.888C132.779 46.2053 133.953 45.352 135.062 44.328C136.214 43.2613 137.238 42.152 138.134 41C139.03 39.848 139.734 38.8027 140.246 37.864C140.289 37.9067 140.31 37.992 140.31 38.12C140.31 38.504 140.075 39.0373 139.606 39.72C139.137 40.36 138.646 41 138.134 41.64C137.665 42.28 137.387 42.7493 137.302 43.048C137.259 43.3467 137.174 43.6027 137.046 43.816C136.961 44.0293 136.854 44.264 136.726 44.52C136.001 45.2453 134.955 45.992 133.59 46.76C132.267 47.4853 130.881 48.0827 129.43 48.552C128.022 49.0213 126.785 49.256 125.718 49.256ZM128.15 35.752C129.259 35.5387 130.347 35.368 131.414 35.24C132.523 35.112 133.633 35.048 134.742 35.048C135.083 35.048 135.425 35.048 135.766 35.048C136.107 35.048 136.449 35.0693 136.79 35.112C137.131 34.3867 137.409 33.5973 137.622 32.744C137.878 31.8907 138.006 31.0587 138.006 30.248C138.006 29.608 137.878 28.968 137.622 28.328C137.366 27.6453 136.811 27.304 135.958 27.304C135.147 27.304 134.315 27.6453 133.462 28.328C132.651 29.0107 131.99 29.6293 131.478 30.184C130.795 30.9947 130.177 31.8907 129.622 32.872C129.11 33.8107 128.619 34.7707 128.15 35.752ZM141.855 48.936C140.575 48.936 139.934 48.232 139.934 46.824C139.934 45.8427 140.191 44.4773 140.703 42.728C141.215 40.9787 141.812 39.1227 142.495 37.16C143.22 35.1547 143.924 33.2773 144.607 31.528C145.332 29.736 145.887 28.328 146.271 27.304C146.825 25.8107 147.508 24.0827 148.319 22.12C149.129 20.1573 150.068 18.1733 151.135 16.168C152.201 14.12 153.396 12.2427 154.719 10.536C156.084 8.82933 157.577 7.44267 159.199 6.376C160.863 5.30933 162.676 4.776 164.639 4.776C166.772 4.776 168.18 5.16 168.863 5.928C169.588 6.696 169.951 7.48533 169.951 8.296C169.951 8.63733 169.823 8.85066 169.567 8.936C169.353 9.02133 169.247 8.91467 169.247 8.616C169.247 7.72 168.884 6.99467 168.159 6.44C167.476 5.84267 166.623 5.544 165.599 5.544C163.849 5.544 162.185 6.20533 160.607 7.528C159.028 8.85066 157.556 10.5573 156.191 12.648C154.825 14.7387 153.588 16.9573 152.479 19.304C151.369 21.608 150.388 23.8053 149.535 25.896C148.724 27.944 148.084 29.5867 147.615 30.824C147.316 31.6347 146.911 32.7013 146.399 34.024C145.887 35.304 145.375 36.6693 144.863 38.12C144.393 39.528 143.988 40.8933 143.647 42.216C143.305 43.496 143.135 44.5413 143.135 45.352C143.135 45.608 143.177 45.9067 143.263 46.248C143.348 46.5893 143.561 46.76 143.903 46.76C144.116 46.76 144.287 46.7173 144.415 46.632C144.585 46.5467 144.756 46.4613 144.927 46.376C145.908 45.8213 146.847 45.0747 147.743 44.136C148.681 43.1547 149.535 42.1093 150.303 41C151.071 39.848 151.711 38.8027 152.223 37.864C152.265 37.9067 152.287 37.992 152.287 38.12C152.287 38.4613 152.031 38.9947 151.519 39.72C151.049 40.4453 150.559 41.1493 150.047 41.832C149.577 42.472 149.321 42.8773 149.279 43.048C149.236 43.3467 149.172 43.6027 149.087 43.816C149.001 43.9867 148.895 44.2213 148.767 44.52C148.255 45.032 147.593 45.6293 146.783 46.312C146.015 46.9947 145.204 47.6133 144.351 48.168C143.497 48.68 142.665 48.936 141.855 48.936ZM151.044 49.128C150.361 49.128 149.913 48.872 149.7 48.36C149.529 47.8053 149.444 47.2507 149.444 46.696C149.444 44.6907 149.828 42.536 150.596 40.232C151.364 37.928 152.366 35.7307 153.604 33.64C154.841 31.5067 156.185 29.7573 157.635 28.392C159.172 26.984 160.985 26.28 163.076 26.28C163.929 26.28 164.761 26.3867 165.572 26.6C166.425 26.7707 167.257 27.0267 168.068 27.368C168.793 26.856 169.582 26.408 170.436 26.024C171.289 25.64 172.164 25.448 173.06 25.448C173.273 25.448 173.444 25.576 173.572 25.832V26.024C173.572 26.152 173.508 26.216 173.38 26.216C173.294 26.1733 173.209 26.152 173.124 26.152C172.441 26.152 171.694 26.6853 170.884 27.752C170.073 28.776 169.262 30.0987 168.452 31.72C167.641 33.3413 166.894 35.048 166.212 36.84C165.572 38.632 165.038 40.2747 164.612 41.768C164.228 43.2613 164.036 44.392 164.036 45.16C164.036 45.4587 164.078 45.8 164.164 46.184C164.292 46.568 164.548 46.76 164.932 46.76C165.145 46.76 165.316 46.7173 165.444 46.632C165.614 46.5467 165.785 46.4613 165.956 46.376C166.894 45.8213 167.812 45.0747 168.708 44.136C169.646 43.1547 170.5 42.1093 171.268 41C172.078 39.848 172.74 38.8027 173.252 37.864C173.294 37.9067 173.316 37.992 173.316 38.12C173.316 38.376 173.166 38.76 172.868 39.272C172.569 39.7413 172.228 40.2533 171.844 40.808C171.46 41.3627 171.097 41.8533 170.756 42.28C170.457 42.7067 170.308 42.9627 170.308 43.048C170.265 43.3467 170.201 43.6027 170.116 43.816C170.03 43.9867 169.902 44.2213 169.732 44.52C169.177 45.0747 168.473 45.7147 167.62 46.44C166.766 47.1653 165.87 47.8053 164.932 48.36C164.036 48.872 163.161 49.128 162.308 49.128C160.985 49.128 160.324 48.424 160.324 47.016C160.324 46.1627 160.494 45.1813 160.836 44.072C161.22 42.92 161.646 41.7893 162.116 40.68C162.628 39.528 163.076 38.568 163.46 37.8C163.46 37.7573 163.46 37.6933 163.46 37.608C163.46 37.5227 163.438 37.48 163.396 37.48C163.353 37.48 163.289 37.5227 163.204 37.608C162.692 38.2907 161.945 39.272 160.964 40.552C159.982 41.832 158.894 43.1333 157.7 44.456C156.548 45.736 155.374 46.8453 154.18 47.784C152.985 48.68 151.94 49.128 151.044 49.128ZM153.86 46.376C154.329 46.376 154.905 46.0773 155.588 45.48C156.313 44.84 157.06 44.0933 157.828 43.24C158.638 42.344 159.342 41.4907 159.94 40.68C160.58 39.8693 161.028 39.272 161.284 38.888C161.796 38.12 162.372 37.16 163.012 36.008C163.694 34.856 164.27 33.6613 164.74 32.424C165.252 31.1867 165.508 30.1413 165.508 29.288C165.508 27.9653 164.846 27.304 163.524 27.304C162.756 27.304 161.945 27.6453 161.092 28.328C160.238 29.0107 159.556 29.6293 159.044 30.184C158.489 30.8667 157.849 31.848 157.124 33.128C156.441 34.408 155.801 35.7947 155.204 37.288C154.606 38.7813 154.094 40.2107 153.668 41.576C153.284 42.9413 153.092 44.072 153.092 44.968C153.092 45.224 153.134 45.5227 153.22 45.864C153.305 46.2053 153.518 46.376 153.86 46.376ZM168.775 49.832C168.69 49.832 168.647 49.8107 168.647 49.768C168.647 49.5973 168.732 49.4267 168.903 49.256C169.031 49.128 169.138 49 169.223 48.872C169.607 48.232 170.034 47.144 170.503 45.608C171.015 44.0293 171.506 42.3013 171.975 40.424C172.487 38.5467 172.935 36.7973 173.319 35.176C173.746 33.512 174.044 32.2533 174.215 31.4C174.3 31.0587 174.386 30.6107 174.471 30.056C174.599 29.5013 174.748 28.9467 174.919 28.392C175.09 27.8373 175.282 27.4747 175.495 27.304C175.879 26.9627 176.455 26.664 177.223 26.408C177.991 26.152 178.759 25.96 179.527 25.832C180.338 25.6613 180.999 25.576 181.511 25.576C181.596 25.576 181.703 25.6187 181.831 25.704C181.959 25.7893 182.044 25.8747 182.087 25.96L182.151 26.152C182.108 26.28 182.044 26.344 181.959 26.344C181.874 26.3013 181.788 26.28 181.703 26.28C180.892 26.28 180.146 26.7493 179.463 27.688C178.78 28.584 178.183 29.6933 177.671 31.016C177.159 32.3387 176.711 33.6187 176.327 34.856C175.986 36.0507 175.751 36.9467 175.623 37.544C176.05 36.5627 176.604 35.4533 177.287 34.216C178.012 32.936 178.844 31.72 179.783 30.568C180.722 29.3733 181.746 28.392 182.855 27.624C183.964 26.8133 185.138 26.408 186.375 26.408C186.546 26.408 186.823 26.4507 187.207 26.536C187.634 26.5787 188.018 26.6853 188.359 26.856C188.743 26.984 188.935 27.1547 188.935 27.368L188.871 27.432H188.807L188.423 27.304C188.551 27.6027 188.636 27.9013 188.679 28.2C188.722 28.4987 188.743 28.7973 188.743 29.096C188.743 29.352 188.658 29.9067 188.487 30.76C188.359 31.6133 188.167 32.424 187.911 33.192C187.698 33.9173 187.463 34.28 187.207 34.28C187.036 34.28 186.951 34.216 186.951 34.088C186.951 33.8747 187.015 33.5333 187.143 33.064C187.314 32.552 187.399 32.0827 187.399 31.656C187.399 30.888 187.207 30.2693 186.823 29.8C186.439 29.3307 185.863 29.096 185.095 29.096C183.815 29.096 182.578 29.6507 181.383 30.76C180.188 31.8267 179.1 33.1707 178.119 34.792C177.138 36.3707 176.306 37.9707 175.623 39.592C174.94 41.2133 174.471 42.536 174.215 43.56C174.044 44.1147 173.895 44.84 173.767 45.736C173.639 46.5893 173.319 47.1867 172.807 47.528C172.679 47.5707 172.274 47.784 171.591 48.168C170.951 48.552 170.332 48.9147 169.735 49.256C169.095 49.64 168.775 49.832 168.775 49.832ZM198.796 21.48C198.454 21.48 197.921 21.352 197.196 21.096C196.513 20.7973 196.172 20.4347 196.172 20.008C196.172 19.9653 196.172 19.944 196.172 19.944C196.214 19.9013 196.236 19.8587 196.236 19.816C196.449 19.3893 196.918 19.1333 197.644 19.048C198.412 18.9627 198.988 18.8347 199.372 18.664C200.225 18.3227 201.057 18.0453 201.868 17.832C202.678 17.6187 203.446 17.2347 204.172 16.68C204.342 16.7653 204.428 16.8507 204.428 16.936C204.428 17.1067 204.236 17.3413 203.852 17.64C203.51 17.9387 203.276 18.1947 203.148 18.408C202.977 18.664 202.593 19.048 201.996 19.56C201.441 20.0293 200.844 20.4773 200.204 20.904C199.564 21.288 199.094 21.48 198.796 21.48ZM187.98 49.192C187.297 49.192 186.828 49.0213 186.572 48.68C186.316 48.3387 186.188 47.848 186.188 47.208C186.188 45.8 186.465 44.0933 187.02 42.088C187.617 40.0827 188.278 38.056 189.004 36.008C189.729 33.9173 190.305 32.0613 190.732 30.44C190.902 29.8427 191.308 29.4373 191.948 29.224C192.63 28.968 193.206 28.6693 193.676 28.328C194.358 27.8587 195.084 27.4747 195.852 27.176C196.62 26.8347 197.43 26.664 198.284 26.664C198.497 26.664 198.625 26.7067 198.668 26.792C198.753 26.8773 198.796 26.9413 198.796 26.984C198.796 27.24 198.646 27.368 198.348 27.368C197.75 27.368 197.132 27.7307 196.492 28.456C195.852 29.1387 195.212 30.0347 194.572 31.144C193.932 32.2533 193.356 33.4053 192.844 34.6C192.332 35.7947 191.884 36.904 191.5 37.928C191.116 38.9093 190.86 39.6347 190.732 40.104C190.518 40.7867 190.305 41.5973 190.092 42.536C189.878 43.432 189.772 44.264 189.772 45.032C189.772 45.3307 189.814 45.6933 189.9 46.12C189.985 46.504 190.241 46.696 190.668 46.696C190.966 46.696 191.286 46.5893 191.628 46.376C192.566 45.8213 193.484 45.0747 194.38 44.136C195.318 43.1547 196.172 42.1093 196.94 41C197.75 39.848 198.39 38.8027 198.86 37.864C198.945 37.9067 198.988 37.992 198.988 38.12C198.988 38.376 198.838 38.76 198.54 39.272C198.241 39.7413 197.9 40.2533 197.516 40.808C197.132 41.3627 196.769 41.8533 196.428 42.28C196.129 42.7067 195.98 42.9627 195.98 43.048C195.937 43.3893 195.873 43.6453 195.788 43.816C195.702 43.944 195.574 44.1787 195.404 44.52C194.892 45.032 194.209 45.672 193.356 46.44C192.502 47.1653 191.606 47.8053 190.668 48.36C189.729 48.9147 188.833 49.192 187.98 49.192ZM197.731 49.128C197.048 49.128 196.6 48.872 196.387 48.36C196.216 47.8053 196.131 47.2507 196.131 46.696C196.131 44.6907 196.515 42.536 197.283 40.232C198.051 37.928 199.054 35.7307 200.291 33.64C201.528 31.5067 202.872 29.7573 204.323 28.392C205.859 26.984 207.672 26.28 209.763 26.28C210.616 26.28 211.448 26.3867 212.259 26.6C213.112 26.7707 213.944 27.0267 214.755 27.368C215.48 26.856 216.27 26.408 217.123 26.024C217.976 25.64 218.851 25.448 219.747 25.448C219.96 25.448 220.131 25.576 220.259 25.832V26.024C220.259 26.152 220.195 26.216 220.067 26.216C219.982 26.1733 219.896 26.152 219.811 26.152C219.128 26.152 218.382 26.6853 217.571 27.752C216.76 28.776 215.95 30.0987 215.139 31.72C214.328 33.3413 213.582 35.048 212.899 36.84C212.259 38.632 211.726 40.2747 211.299 41.768C210.915 43.2613 210.723 44.392 210.723 45.16C210.723 45.4587 210.766 45.8 210.851 46.184C210.979 46.568 211.235 46.76 211.619 46.76C211.832 46.76 212.003 46.7173 212.131 46.632C212.302 46.5467 212.472 46.4613 212.643 46.376C213.582 45.8213 214.499 45.0747 215.395 44.136C216.334 43.1547 217.187 42.1093 217.955 41C218.766 39.848 219.427 38.8027 219.939 37.864C219.982 37.9067 220.003 37.992 220.003 38.12C220.003 38.376 219.854 38.76 219.555 39.272C219.256 39.7413 218.915 40.2533 218.531 40.808C218.147 41.3627 217.784 41.8533 217.443 42.28C217.144 42.7067 216.995 42.9627 216.995 43.048C216.952 43.3467 216.888 43.6027 216.803 43.816C216.718 43.9867 216.59 44.2213 216.419 44.52C215.864 45.0747 215.16 45.7147 214.307 46.44C213.454 47.1653 212.558 47.8053 211.619 48.36C210.723 48.872 209.848 49.128 208.995 49.128C207.672 49.128 207.011 48.424 207.011 47.016C207.011 46.1627 207.182 45.1813 207.523 44.072C207.907 42.92 208.334 41.7893 208.803 40.68C209.315 39.528 209.763 38.568 210.147 37.8C210.147 37.7573 210.147 37.6933 210.147 37.608C210.147 37.5227 210.126 37.48 210.083 37.48C210.04 37.48 209.976 37.5227 209.891 37.608C209.379 38.2907 208.632 39.272 207.651 40.552C206.67 41.832 205.582 43.1333 204.387 44.456C203.235 45.736 202.062 46.8453 200.867 47.784C199.672 48.68 198.627 49.128 197.731 49.128ZM200.547 46.376C201.016 46.376 201.592 46.0773 202.275 45.48C203 44.84 203.747 44.0933 204.515 43.24C205.326 42.344 206.03 41.4907 206.627 40.68C207.267 39.8693 207.715 39.272 207.971 38.888C208.483 38.12 209.059 37.16 209.699 36.008C210.382 34.856 210.958 33.6613 211.427 32.424C211.939 31.1867 212.195 30.1413 212.195 29.288C212.195 27.9653 211.534 27.304 210.211 27.304C209.443 27.304 208.632 27.6453 207.779 28.328C206.926 29.0107 206.243 29.6293 205.731 30.184C205.176 30.8667 204.536 31.848 203.811 33.128C203.128 34.408 202.488 35.7947 201.891 37.288C201.294 38.7813 200.782 40.2107 200.355 41.576C199.971 42.9413 199.779 44.072 199.779 44.968C199.779 45.224 199.822 45.5227 199.907 45.864C199.992 46.2053 200.206 46.376 200.547 46.376Z" fill="white"/>
<path d="M30.408 97.144C30.1093 97.144 29.7467 97.1227 29.32 97.08C28.8933 97.0373 28.68 96.9307 28.68 96.76C28.68 96.504 28.9147 96.1627 29.384 95.736C29.8533 95.2667 30.3653 94.8613 30.92 94.52C31.5173 94.136 31.9227 93.944 32.136 93.944C32.5627 93.944 32.968 93.9653 33.352 94.008C33.7787 94.0507 34.2053 94.072 34.632 94.072C36.9787 94.072 39.4747 93.816 42.12 93.304C44.808 92.7493 47.176 91.896 49.224 90.744C50.6747 89.9333 52.0613 88.952 53.384 87.8C54.7067 86.6053 55.7947 85.2613 56.648 83.768C57.5013 82.232 57.928 80.5893 57.928 78.84C57.928 77.816 57.736 76.8347 57.352 75.896C57.0107 74.9147 56.5413 74.0187 55.944 73.208C54.792 71.672 53.32 70.4133 51.528 69.432C49.736 68.4507 47.7947 67.704 45.704 67.192C43.656 66.68 41.5867 66.3173 39.496 66.104C37.4053 65.8907 35.464 65.784 33.672 65.784C31.368 65.784 28.8933 65.9333 26.248 66.232C23.6027 66.488 21.0213 67.0213 18.504 67.832C16.0293 68.6427 13.8107 69.8373 11.848 71.416C9.928 72.952 8.52 74.9787 7.624 77.496C7.32533 78.392 7.176 79.3733 7.176 80.44C7.176 81.4213 7.34667 82.4027 7.688 83.384C8.072 84.3653 8.73333 85.0907 9.672 85.56C9.75733 85.6027 10.0133 85.624 10.44 85.624C10.8667 85.624 11.1653 85.624 11.336 85.624C11.4213 85.624 11.592 85.6453 11.848 85.688C12.1467 85.688 12.296 85.7733 12.296 85.944C12.296 86.2 12.0827 86.4133 11.656 86.584C11.272 86.7547 10.9733 86.84 10.76 86.84C9.82133 86.84 9.096 86.5627 8.584 86.008C8.072 85.4533 7.64533 85.176 7.304 85.176C7.26133 85.176 7.21867 85.1973 7.176 85.24C7.13333 85.2827 7.06933 85.3893 6.984 85.56C6.89867 85.688 6.81333 85.752 6.728 85.752C6.472 85.752 6.23733 85.5387 6.024 85.112C5.85333 84.6427 5.704 84.152 5.576 83.64C5.49067 83.0853 5.448 82.7013 5.448 82.488C5.448 81.8907 5.512 81.208 5.64 80.44C5.81067 79.672 5.98133 79.0107 6.152 78.456C7.048 75.512 8.47733 73.0587 10.44 71.096C12.4027 69.0907 14.664 67.4907 17.224 66.296C19.8267 65.0587 22.5573 64.184 25.416 63.672C28.3173 63.1173 31.1547 62.84 33.928 62.84C35.976 62.84 38.1307 62.9893 40.392 63.288C42.696 63.544 44.9573 64.0133 47.176 64.696C49.4373 65.3787 51.528 66.3173 53.448 67.512C55.4107 68.664 57.0533 70.1147 58.376 71.864C59.1013 72.8453 59.6773 73.912 60.104 75.064C60.5307 76.216 60.744 77.4107 60.744 78.648C60.744 80.6533 60.2533 82.4667 59.272 84.088C58.2907 85.7093 57.032 87.1387 55.496 88.376C53.96 89.6133 52.36 90.6587 50.696 91.512C48.9467 92.408 46.8987 93.304 44.552 94.2C42.2053 95.0533 39.816 95.7573 37.384 96.312C34.9947 96.8667 32.7973 97.144 30.792 97.144H30.408ZM5.576 115.512C5.10667 115.512 4.552 115.491 3.912 115.448C3.272 115.405 2.76 115.277 2.376 115.064C2.20533 114.936 1.88533 114.723 1.416 114.424C0.946667 114.168 0.712 113.912 0.712 113.656C0.712 113.357 0.84 113.208 1.096 113.208C1.30933 113.251 1.416 113.101 1.416 112.76C1.416 112.419 1.352 112.077 1.224 111.736C1.096 111.395 1.032 111.053 1.032 110.712C1.032 110.328 1.13867 109.795 1.352 109.112C1.56533 108.472 1.90667 108.152 2.376 108.152C2.504 108.152 2.568 108.216 2.568 108.344C2.568 108.771 2.46133 109.176 2.248 109.56C1.992 109.944 1.864 110.328 1.864 110.712C1.864 111.309 2.12 111.885 2.632 112.44C3.10133 112.995 3.69867 113.443 4.424 113.784C5.10667 114.168 5.72533 114.36 6.28 114.36C6.49333 114.36 6.728 114.36 6.984 114.36C7.24 114.36 7.47467 114.339 7.688 114.296C9.82133 113.997 11.8053 112.995 13.64 111.288C15.5173 109.581 17.2453 107.427 18.824 104.824C20.4453 102.179 21.9173 99.32 23.24 96.248C24.5627 93.1333 25.7573 90.04 26.824 86.968C27.8907 83.896 28.8293 81.0373 29.64 78.392C30.4933 75.7467 31.1973 73.592 31.752 71.928C31.9653 71.2453 32.2 70.712 32.456 70.328C32.712 69.9013 33.1173 69.4747 33.672 69.048C34.44 68.4507 35.336 68.024 36.36 67.768C37.4267 67.4693 38.4293 67.32 39.368 67.32C39.4533 67.32 39.5813 67.3413 39.752 67.384C39.9227 67.4267 40.008 67.5333 40.008 67.704C40.008 67.8747 39.8587 68.0027 39.56 68.088C39.304 68.1307 39.1333 68.152 39.048 68.152C38.4507 68.152 37.8107 68.6 37.128 69.496C36.488 70.392 35.848 71.5227 35.208 72.888C34.568 74.2533 33.9707 75.6613 33.416 77.112C32.8613 78.5627 32.3707 79.8853 31.944 81.08C31.56 82.232 31.2827 83.0427 31.112 83.512C30.6 84.9627 30.088 86.4347 29.576 87.928C29.064 89.3787 28.5307 90.8293 27.976 92.28C27.336 93.9867 26.6533 95.6933 25.928 97.4C25.2453 99.1067 24.456 100.771 23.56 102.392C22.2373 104.781 20.8293 106.957 19.336 108.92C17.8853 110.925 16.136 112.504 14.088 113.656C12.0827 114.851 9.544 115.469 6.472 115.512H5.576ZM56.3375 107.832C56.2522 107.832 56.2095 107.811 56.2095 107.768C56.2095 107.597 56.2948 107.427 56.4655 107.256C56.5935 107.128 56.7002 107 56.7855 106.872C57.1695 106.232 57.5962 105.144 58.0655 103.608C58.5775 102.029 59.0682 100.301 59.5375 98.424C60.0495 96.5467 60.4975 94.7973 60.8815 93.176C61.3082 91.512 61.6068 90.2533 61.7775 89.4C61.8628 89.0587 61.9482 88.6107 62.0335 88.056C62.1615 87.5013 62.3108 86.9467 62.4815 86.392C62.6522 85.8373 62.8442 85.4747 63.0575 85.304C63.4415 84.9627 64.0175 84.664 64.7855 84.408C65.5535 84.152 66.3215 83.96 67.0895 83.832C67.9002 83.6613 68.5615 83.576 69.0735 83.576C69.1588 83.576 69.2655 83.6187 69.3935 83.704C69.5215 83.7893 69.6068 83.8747 69.6495 83.96L69.7135 84.152C69.6708 84.28 69.6068 84.344 69.5215 84.344C69.4362 84.3013 69.3508 84.28 69.2655 84.28C68.4548 84.28 67.7082 84.7493 67.0255 85.688C66.3428 86.584 65.7455 87.6933 65.2335 89.016C64.7215 90.3387 64.2735 91.6187 63.8895 92.856C63.5482 94.0507 63.3135 94.9467 63.1855 95.544C63.6122 94.5627 64.1668 93.4533 64.8495 92.216C65.5748 90.936 66.4068 89.72 67.3455 88.568C68.2842 87.3733 69.3082 86.392 70.4175 85.624C71.5268 84.8133 72.7002 84.408 73.9375 84.408C74.1082 84.408 74.3855 84.4507 74.7695 84.536C75.1962 84.5787 75.5802 84.6853 75.9215 84.856C76.3055 84.984 76.4975 85.1547 76.4975 85.368L76.4335 85.432H76.3695L75.9855 85.304C76.1135 85.6027 76.1988 85.9013 76.2415 86.2C76.2842 86.4987 76.3055 86.7973 76.3055 87.096C76.3055 87.352 76.2202 87.9067 76.0495 88.76C75.9215 89.6133 75.7295 90.424 75.4735 91.192C75.2602 91.9173 75.0255 92.28 74.7695 92.28C74.5988 92.28 74.5135 92.216 74.5135 92.088C74.5135 91.8747 74.5775 91.5333 74.7055 91.064C74.8762 90.552 74.9615 90.0827 74.9615 89.656C74.9615 88.888 74.7695 88.2693 74.3855 87.8C74.0015 87.3307 73.4255 87.096 72.6575 87.096C71.3775 87.096 70.1402 87.6507 68.9455 88.76C67.7508 89.8267 66.6628 91.1707 65.6815 92.792C64.7002 94.3707 63.8682 95.9707 63.1855 97.592C62.5028 99.2133 62.0335 100.536 61.7775 101.56C61.6068 102.115 61.4575 102.84 61.3295 103.736C61.2015 104.589 60.8815 105.187 60.3695 105.528C60.2415 105.571 59.8362 105.784 59.1535 106.168C58.5135 106.552 57.8948 106.915 57.2975 107.256C56.6575 107.64 56.3375 107.832 56.3375 107.832ZM75.606 107.128C74.9233 107.128 74.4753 106.872 74.262 106.36C74.0913 105.805 74.006 105.251 74.006 104.696C74.006 102.691 74.39 100.536 75.158 98.232C75.926 95.928 76.9287 93.7307 78.166 91.64C79.4033 89.5067 80.7473 87.7573 82.198 86.392C83.734 84.984 85.5473 84.28 87.638 84.28C88.4913 84.28 89.3233 84.3867 90.134 84.6C90.9873 84.7707 91.8193 85.0267 92.63 85.368C93.3553 84.856 94.1447 84.408 94.998 84.024C95.8513 83.64 96.726 83.448 97.622 83.448C97.8353 83.448 98.006 83.576 98.134 83.832V84.024C98.134 84.152 98.07 84.216 97.942 84.216C97.8567 84.1733 97.7713 84.152 97.686 84.152C97.0033 84.152 96.2567 84.6853 95.446 85.752C94.6353 86.776 93.8247 88.0987 93.014 89.72C92.2033 91.3413 91.4567 93.048 90.774 94.84C90.134 96.632 89.6007 98.2747 89.174 99.768C88.79 101.261 88.598 102.392 88.598 103.16C88.598 103.459 88.6407 103.8 88.726 104.184C88.854 104.568 89.11 104.76 89.494 104.76C89.7073 104.76 89.878 104.717 90.006 104.632C90.1767 104.547 90.3473 104.461 90.518 104.376C91.4567 103.821 92.374 103.075 93.27 102.136C94.2087 101.155 95.062 100.109 95.83 99C96.6407 97.848 97.302 96.8027 97.814 95.864C97.8567 95.9067 97.878 95.992 97.878 96.12C97.878 96.376 97.7287 96.76 97.43 97.272C97.1313 97.7413 96.79 98.2533 96.406 98.808C96.022 99.3627 95.6593 99.8533 95.318 100.28C95.0193 100.707 94.87 100.963 94.87 101.048C94.8273 101.347 94.7633 101.603 94.678 101.816C94.5927 101.987 94.4647 102.221 94.294 102.52C93.7393 103.075 93.0353 103.715 92.182 104.44C91.3287 105.165 90.4327 105.805 89.494 106.36C88.598 106.872 87.7233 107.128 86.87 107.128C85.5473 107.128 84.886 106.424 84.886 105.016C84.886 104.163 85.0567 103.181 85.398 102.072C85.782 100.92 86.2087 99.7893 86.678 98.68C87.19 97.528 87.638 96.568 88.022 95.8C88.022 95.7573 88.022 95.6933 88.022 95.608C88.022 95.5227 88.0007 95.48 87.958 95.48C87.9153 95.48 87.8513 95.5227 87.766 95.608C87.254 96.2907 86.5073 97.272 85.526 98.552C84.5447 99.832 83.4567 101.133 82.262 102.456C81.11 103.736 79.9367 104.845 78.742 105.784C77.5473 106.68 76.502 107.128 75.606 107.128ZM78.422 104.376C78.8913 104.376 79.4673 104.077 80.15 103.48C80.8753 102.84 81.622 102.093 82.39 101.24C83.2007 100.344 83.9047 99.4907 84.502 98.68C85.142 97.8693 85.59 97.272 85.846 96.888C86.358 96.12 86.934 95.16 87.574 94.008C88.2567 92.856 88.8327 91.6613 89.302 90.424C89.814 89.1867 90.07 88.1413 90.07 87.288C90.07 85.9653 89.4087 85.304 88.086 85.304C87.318 85.304 86.5073 85.6453 85.654 86.328C84.8007 87.0107 84.118 87.6293 83.606 88.184C83.0513 88.8667 82.4113 89.848 81.686 91.128C81.0033 92.408 80.3633 93.7947 79.766 95.288C79.1687 96.7813 78.6567 98.2107 78.23 99.576C77.846 100.941 77.654 102.072 77.654 102.968C77.654 103.224 77.6967 103.523 77.782 103.864C77.8673 104.205 78.0807 104.376 78.422 104.376ZM96.5375 107.128C95.9402 107.128 95.5348 106.915 95.3215 106.488C95.1508 106.061 95.0655 105.613 95.0655 105.144V104.888C95.0655 104.205 95.1935 103.523 95.4495 102.84C95.7055 102.115 95.9402 101.432 96.1535 100.792C96.4948 99.8107 96.9002 98.5947 97.3695 97.144C97.8815 95.6507 98.3295 94.1573 98.7135 92.664C99.1402 91.1707 99.3535 89.9547 99.3535 89.016C99.3535 88.632 99.2895 88.2693 99.1615 87.928C99.0762 87.5867 98.7988 87.3947 98.3295 87.352C98.3295 87.352 98.2868 87.352 98.2015 87.352C98.1588 87.352 98.1375 87.3307 98.1375 87.288C98.1375 87.16 98.3508 87.032 98.7775 86.904C99.2468 86.7333 99.8015 86.5627 100.442 86.392C101.082 86.2213 101.679 86.0933 102.234 86.008C102.788 85.88 103.151 85.816 103.322 85.816C103.407 85.816 103.556 85.8373 103.77 85.88C104.026 85.9227 104.154 86.0507 104.154 86.264C104.154 86.3493 104.132 86.4133 104.09 86.456C103.663 87.48 103.172 88.696 102.618 90.104C102.063 91.512 101.508 93.0053 100.954 94.584C100.442 96.12 100.015 97.6347 99.6735 99.128C99.3322 100.579 99.1615 101.88 99.1615 103.032C99.1615 103.245 99.2042 103.459 99.2895 103.672C99.3748 103.885 99.5455 103.992 99.8015 103.992C100.271 103.992 100.847 103.715 101.53 103.16C102.255 102.605 102.767 102.179 103.066 101.88C104.687 100.131 106.116 98.168 107.354 95.992C108.591 93.816 109.572 91.6187 110.298 89.4C110.468 88.9307 110.66 88.44 110.874 87.928C111.087 87.3733 111.45 87.0107 111.962 86.84C112.132 86.7973 112.303 86.7547 112.474 86.712C112.644 86.6693 112.815 86.6267 112.986 86.584C113.711 86.2427 114.436 85.9867 115.162 85.816C115.93 85.6027 116.698 85.496 117.466 85.496C117.551 85.496 117.658 85.5387 117.786 85.624C117.914 85.7093 117.999 85.7947 118.042 85.88V86.072C118.042 86.2 117.999 86.264 117.914 86.264C117.828 86.2213 117.743 86.2 117.658 86.2C116.847 86.2 116.1 86.6053 115.418 87.416C114.735 88.2267 114.138 89.208 113.626 90.36C113.114 91.512 112.687 92.6427 112.346 93.752C112.047 94.8613 111.834 95.7147 111.706 96.312C111.535 97.1227 111.407 97.9547 111.322 98.808C111.236 99.6613 111.194 100.515 111.194 101.368C111.194 101.795 111.236 102.349 111.322 103.032C111.45 103.672 111.812 103.992 112.41 103.992C113.007 103.992 113.69 103.672 114.458 103.032C115.226 102.392 115.802 101.859 116.186 101.432C118.063 99.384 119.62 97.1227 120.858 94.648C122.095 92.1733 123.119 89.6347 123.93 87.032C124.058 86.648 124.207 86.3067 124.378 86.008C124.548 85.7093 124.826 85.4533 125.21 85.24C125.38 85.1547 125.615 85.048 125.914 84.92C126.212 84.7493 126.447 84.664 126.618 84.664C126.874 84.664 127.002 84.8347 127.002 85.176C127.002 85.6453 126.788 86.3067 126.362 87.16C125.978 88.0133 125.679 88.6533 125.466 89.08C124.996 89.9333 124.356 91.1067 123.546 92.6C122.735 94.0507 121.796 95.608 120.73 97.272C119.663 98.936 118.532 100.515 117.338 102.008C116.143 103.459 114.927 104.675 113.69 105.656C112.452 106.595 111.279 107.064 110.17 107.064C109.274 107.064 108.719 106.723 108.506 106.04C108.335 105.357 108.25 104.675 108.25 103.992C108.25 102.499 108.292 101.027 108.378 99.576C108.506 98.0827 108.719 96.6107 109.018 95.16C108.207 96.4827 107.268 97.8907 106.202 99.384C105.135 100.835 103.962 102.2 102.682 103.48C101.402 104.717 100.058 105.699 98.6495 106.424C98.3508 106.595 98.0095 106.765 97.6255 106.936C97.2415 107.064 96.8788 107.128 96.5375 107.128ZM122.523 107.832C122.481 107.832 122.459 107.811 122.459 107.768C122.459 107.597 122.545 107.427 122.715 107.256C122.843 107.085 122.929 106.957 122.971 106.872C123.27 106.403 123.633 105.613 124.059 104.504C124.444 103.352 124.828 102.072 125.212 100.664C125.638 99.2133 126.022 97.7627 126.364 96.312C126.748 94.8187 127.089 93.4533 127.388 92.216C127.686 90.9787 127.9 90.04 128.028 89.4C128.113 89.0587 128.198 88.6107 128.284 88.056C128.369 87.5013 128.497 86.9467 128.668 86.392C128.838 85.8373 129.03 85.4747 129.244 85.304C129.67 84.9627 130.246 84.664 130.972 84.408C131.74 84.152 132.529 83.96 133.34 83.832C134.15 83.6613 134.812 83.576 135.324 83.576C135.409 83.576 135.516 83.6187 135.644 83.704C135.772 83.7893 135.857 83.8747 135.9 83.96V84.152C135.9 84.28 135.857 84.344 135.772 84.344C135.686 84.3013 135.601 84.28 135.516 84.28C134.577 84.28 133.745 84.8133 133.02 85.88C132.294 86.904 131.676 88.184 131.164 89.72C130.652 91.2133 130.225 92.664 129.884 94.072C129.542 95.48 129.286 96.5467 129.116 97.272C130.481 94.9253 132.038 92.6853 133.788 90.552C135.58 88.376 137.67 86.6267 140.06 85.304C140.358 85.1333 140.7 84.9627 141.083 84.792C141.468 84.5787 141.809 84.472 142.108 84.472C142.662 84.472 143.004 84.728 143.132 85.24C143.26 85.7093 143.324 86.1573 143.324 86.584C143.324 87.1387 143.132 87.9493 142.748 89.016C142.364 90.0827 141.916 91.1493 141.404 92.216C140.934 93.24 140.572 94.0507 140.316 94.648C140.06 95.3307 139.761 96.2053 139.42 97.272C139.078 98.3387 138.78 99.4053 138.524 100.472C138.268 101.539 138.14 102.435 138.14 103.16C138.14 103.459 138.182 103.8 138.268 104.184C138.353 104.568 138.588 104.76 138.972 104.76C139.185 104.76 139.356 104.717 139.484 104.632C139.654 104.547 139.825 104.461 139.996 104.376C140.977 103.821 141.916 103.075 142.812 102.136C143.75 101.155 144.604 100.109 145.372 99C146.14 97.848 146.78 96.8027 147.292 95.864C147.334 95.9067 147.356 95.992 147.356 96.12C147.356 96.376 147.206 96.76 146.908 97.272C146.609 97.7413 146.268 98.2533 145.884 98.808C145.5 99.3627 145.137 99.8533 144.796 100.28C144.497 100.707 144.348 100.963 144.348 101.048C144.305 101.347 144.241 101.603 144.156 101.816C144.07 101.987 143.964 102.221 143.836 102.52C143.324 103.032 142.577 103.672 141.596 104.44C140.657 105.165 139.676 105.827 138.652 106.424C137.67 106.979 136.796 107.256 136.028 107.256C135.345 107.256 134.876 107 134.62 106.488C134.406 105.933 134.3 105.357 134.3 104.76C134.3 103.608 134.534 102.243 135.004 100.664C135.473 99.0427 136.028 97.4427 136.668 95.864C137.308 94.2427 137.841 92.8773 138.268 91.768C138.396 91.4267 138.588 90.8933 138.844 90.168C139.142 89.4427 139.292 88.9307 139.292 88.632C139.292 88.4187 139.249 88.184 139.164 87.928C139.121 87.672 138.929 87.544 138.588 87.544C138.161 87.544 137.606 87.8213 136.924 88.376C136.284 88.9307 135.793 89.3787 135.452 89.72C133.617 91.768 132.038 94.0507 130.716 96.568C129.393 99.0427 128.284 101.603 127.388 104.248C127.26 104.589 127.174 104.845 127.132 105.016C127.132 105.144 126.961 105.315 126.62 105.528C126.492 105.613 126.086 105.848 125.404 106.232C124.764 106.616 124.145 106.979 123.547 107.32C122.907 107.661 122.566 107.832 122.523 107.832ZM146.106 107.128C145.423 107.128 144.975 106.872 144.762 106.36C144.591 105.805 144.506 105.251 144.506 104.696C144.506 102.691 144.89 100.536 145.658 98.232C146.426 95.928 147.429 93.7307 148.666 91.64C149.903 89.5067 151.247 87.7573 152.698 86.392C154.234 84.984 156.047 84.28 158.138 84.28C158.991 84.28 159.823 84.3867 160.634 84.6C161.487 84.7707 162.319 85.0267 163.13 85.368C163.855 84.856 164.645 84.408 165.498 84.024C166.351 83.64 167.226 83.448 168.122 83.448C168.335 83.448 168.506 83.576 168.634 83.832V84.024C168.634 84.152 168.57 84.216 168.442 84.216C168.357 84.1733 168.271 84.152 168.186 84.152C167.503 84.152 166.757 84.6853 165.946 85.752C165.135 86.776 164.325 88.0987 163.514 89.72C162.703 91.3413 161.957 93.048 161.274 94.84C160.634 96.632 160.101 98.2747 159.674 99.768C159.29 101.261 159.098 102.392 159.098 103.16C159.098 103.459 159.141 103.8 159.226 104.184C159.354 104.568 159.61 104.76 159.994 104.76C160.207 104.76 160.378 104.717 160.506 104.632C160.677 104.547 160.847 104.461 161.018 104.376C161.957 103.821 162.874 103.075 163.77 102.136C164.709 101.155 165.562 100.109 166.33 99C167.141 97.848 167.802 96.8027 168.314 95.864C168.357 95.9067 168.378 95.992 168.378 96.12C168.378 96.376 168.229 96.76 167.93 97.272C167.631 97.7413 167.29 98.2533 166.906 98.808C166.522 99.3627 166.159 99.8533 165.818 100.28C165.519 100.707 165.37 100.963 165.37 101.048C165.327 101.347 165.263 101.603 165.178 101.816C165.093 101.987 164.965 102.221 164.794 102.52C164.239 103.075 163.535 103.715 162.682 104.44C161.829 105.165 160.933 105.805 159.994 106.36C159.098 106.872 158.223 107.128 157.37 107.128C156.047 107.128 155.386 106.424 155.386 105.016C155.386 104.163 155.557 103.181 155.898 102.072C156.282 100.92 156.709 99.7893 157.178 98.68C157.69 97.528 158.138 96.568 158.522 95.8C158.522 95.7573 158.522 95.6933 158.522 95.608C158.522 95.5227 158.501 95.48 158.458 95.48C158.415 95.48 158.351 95.5227 158.266 95.608C157.754 96.2907 157.007 97.272 156.026 98.552C155.045 99.832 153.957 101.133 152.762 102.456C151.61 103.736 150.437 104.845 149.242 105.784C148.047 106.68 147.002 107.128 146.106 107.128ZM148.922 104.376C149.391 104.376 149.967 104.077 150.65 103.48C151.375 102.84 152.122 102.093 152.89 101.24C153.701 100.344 154.405 99.4907 155.002 98.68C155.642 97.8693 156.09 97.272 156.346 96.888C156.858 96.12 157.434 95.16 158.074 94.008C158.757 92.856 159.333 91.6613 159.802 90.424C160.314 89.1867 160.57 88.1413 160.57 87.288C160.57 85.9653 159.909 85.304 158.586 85.304C157.818 85.304 157.007 85.6453 156.154 86.328C155.301 87.0107 154.618 87.6293 154.106 88.184C153.551 88.8667 152.911 89.848 152.186 91.128C151.503 92.408 150.863 93.7947 150.266 95.288C149.669 96.7813 149.157 98.2107 148.73 99.576C148.346 100.941 148.154 102.072 148.154 102.968C148.154 103.224 148.197 103.523 148.282 103.864C148.367 104.205 148.581 104.376 148.922 104.376Z" fill="white"/>
</svg>
