<svg width="567" height="47" viewBox="0 0 567 47" fill="none" xmlns="http://www.w3.org/2000/svg">
<path d="M8.03125 46H0.78125C0.614583 46 0.53125 45.8958 0.53125 45.6875L0.65625 1.78125C0.65625 1.57292 0.739583 1.46875 0.90625 1.46875H8.09375C8.26042 1.46875 8.34375 1.57292 8.34375 1.78125V16.9375L18.375 1.71875C18.5417 1.55208 18.6979 1.46875 18.8438 1.46875H26.1875C26.375 1.46875 26.4167 1.55208 26.3125 1.71875L15.25 19.375L27.6562 45.75C27.7604 45.9167 27.6562 46 27.3438 46H19.5312C19.3229 46 19.1979 45.9167 19.1562 45.75L10.5 26.9375L8.28125 30.4375V45.6875C8.28125 45.8958 8.19792 46 8.03125 46ZM34.775 45.6875L42.7125 1.71875C42.7542 1.55208 42.8583 1.46875 43.025 1.46875H52.3063C52.4729 1.46875 52.5771 1.55208 52.6188 1.71875L60.2438 45.6875C60.2646 45.8958 60.1813 46 59.9938 46H52.9C52.6917 46 52.5771 45.8958 52.5563 45.6875L51.8688 41H43.15L42.4625 45.6875C42.4417 45.8958 42.3375 46 42.15 46H35.025C34.8583 46 34.775 45.8958 34.775 45.6875ZM47.9625 16.1875L47.5875 13.8125L47.3063 16.1875L44.4313 34.1562H50.5875L47.9625 16.1875ZM77.6125 46H71.2063C70.8729 46 70.7063 45.8542 70.7063 45.5625L70.6438 1.96875C70.6438 1.63542 70.8104 1.46875 71.1438 1.46875H76.925L87.7375 26.6875L87.425 1.96875C87.425 1.63542 87.6125 1.46875 87.9875 1.46875H94.3313C94.5813 1.46875 94.7063 1.63542 94.7063 1.96875L94.7688 45.625C94.7688 45.875 94.6646 46 94.4563 46H88.8313L77.7375 22.4375L78.2063 45.5C78.2063 45.8333 78.0083 46 77.6125 46ZM118.512 46.625C116.2 46.625 114.085 46.0417 112.169 44.875C110.273 43.7083 108.762 42.1458 107.637 40.1875C106.533 38.2083 105.981 36.0104 105.981 33.5938L106.044 13.625C106.044 11.25 106.585 9.10417 107.669 7.1875C108.752 5.25 110.242 3.69792 112.137 2.53125C114.054 1.34375 116.179 0.75 118.512 0.75C120.887 0.75 123.002 1.32292 124.856 2.46875C126.731 3.61458 128.221 5.16667 129.325 7.125C130.45 9.0625 131.012 11.2292 131.012 13.625V16.5625C131.012 16.7292 130.929 16.8125 130.762 16.8125H123.575C123.408 16.8125 123.325 16.7292 123.325 16.5625V13.625C123.325 12.2083 122.867 10.9896 121.95 9.96875C121.033 8.94792 119.887 8.4375 118.512 8.4375C116.992 8.4375 115.825 8.95833 115.012 10C114.2 11.0417 113.794 12.25 113.794 13.625V33.5938C113.794 35.1562 114.252 36.4375 115.169 37.4375C116.085 38.4167 117.2 38.9062 118.512 38.9062C119.887 38.9062 121.033 38.3646 121.95 37.2812C122.867 36.1771 123.325 34.9479 123.325 33.5938V30.625C123.325 30.4583 123.408 30.375 123.575 30.375H130.825C130.992 30.375 131.075 30.4583 131.075 30.625V33.5938C131.075 35.9896 130.512 38.1771 129.387 40.1562C128.242 42.1146 126.731 43.6875 124.856 44.875C122.981 46.0417 120.867 46.625 118.512 46.625ZM163.069 46H142.381C142.215 46 142.131 45.8958 142.131 45.6875L142.194 1.71875C142.194 1.55208 142.277 1.46875 142.444 1.46875H163.006C163.173 1.46875 163.256 1.57292 163.256 1.78125V8.9375C163.256 9.10417 163.173 9.1875 163.006 9.1875H149.881V19.1875H163.006C163.173 19.1875 163.256 19.2708 163.256 19.4375L163.319 26.6875C163.319 26.8542 163.235 26.9375 163.069 26.9375H149.881V38.125H163.069C163.235 38.125 163.319 38.2292 163.319 38.4375V45.75C163.319 45.9167 163.235 46 163.069 46ZM196.344 46H175.656C175.49 46 175.406 45.8958 175.406 45.6875L175.469 1.78125C175.469 1.57292 175.573 1.46875 175.781 1.46875H182.906C183.115 1.46875 183.219 1.57292 183.219 1.78125L183.156 38.125H196.344C196.552 38.125 196.656 38.2292 196.656 38.4375V45.6875C196.656 45.8958 196.552 46 196.344 46ZM205.087 45.6875L213.025 1.71875C213.067 1.55208 213.171 1.46875 213.337 1.46875H222.619C222.785 1.46875 222.89 1.55208 222.931 1.71875L230.556 45.6875C230.577 45.8958 230.494 46 230.306 46H223.212C223.004 46 222.89 45.8958 222.869 45.6875L222.181 41H213.462L212.775 45.6875C212.754 45.8958 212.65 46 212.462 46H205.337C205.171 46 205.087 45.8958 205.087 45.6875ZM218.275 16.1875L217.9 13.8125L217.619 16.1875L214.744 34.1562H220.9L218.275 16.1875ZM248.456 46H241.206C241.04 46 240.956 45.8958 240.956 45.6875L241.081 1.71875C241.081 1.55208 241.165 1.46875 241.331 1.46875H254.269C256.581 1.46875 258.706 2.03125 260.644 3.15625C262.581 4.28125 264.123 5.79167 265.269 7.6875C266.435 9.58333 267.019 11.7292 267.019 14.125C267.019 15.6875 266.779 17.1042 266.3 18.375C265.821 19.6458 265.258 20.7188 264.613 21.5938C263.988 22.4688 263.415 23.1146 262.894 23.5312C265.206 26.0938 266.363 29.1042 266.363 32.5625L266.425 45.6875C266.425 45.8958 266.321 46 266.113 46H258.863C258.696 46 258.613 45.9375 258.613 45.8125V32.5625C258.613 31.0208 258.071 29.6875 256.988 28.5625C255.904 27.4375 254.571 26.875 252.988 26.875H248.769L248.706 45.6875C248.706 45.8958 248.623 46 248.456 46ZM254.269 9.125H248.769V19.1875H254.269C255.581 19.1875 256.748 18.6979 257.769 17.7188C258.81 16.7396 259.331 15.5417 259.331 14.125C259.331 12.7708 258.831 11.6042 257.831 10.625C256.831 9.625 255.644 9.125 254.269 9.125ZM285.794 46H278.544C278.335 46 278.231 45.8958 278.231 45.6875L278.294 1.71875C278.294 1.55208 278.377 1.46875 278.544 1.46875H285.731C285.898 1.46875 285.981 1.55208 285.981 1.71875L286.044 45.6875C286.044 45.8958 285.96 46 285.794 46ZM295.913 45.6875L303.85 1.71875C303.892 1.55208 303.996 1.46875 304.163 1.46875H313.444C313.61 1.46875 313.715 1.55208 313.756 1.71875L321.381 45.6875C321.402 45.8958 321.319 46 321.131 46H314.038C313.829 46 313.715 45.8958 313.694 45.6875L313.006 41H304.288L303.6 45.6875C303.579 45.8958 303.475 46 303.288 46H296.163C295.996 46 295.913 45.8958 295.913 45.6875ZM309.1 16.1875L308.725 13.8125L308.444 16.1875L305.569 34.1562H311.725L309.1 16.1875ZM362.306 46H355.119C354.91 46 354.806 45.8958 354.806 45.6875L354.931 1.71875C354.931 1.55208 355.015 1.46875 355.181 1.46875H367.494C371.41 1.46875 374.504 2.66667 376.775 5.0625C379.067 7.4375 380.212 10.6771 380.212 14.7812C380.212 17.7812 379.619 20.3958 378.431 22.625C377.223 24.8333 375.66 26.5417 373.744 27.75C371.827 28.9583 369.744 29.5625 367.494 29.5625H362.619V45.6875C362.619 45.8958 362.515 46 362.306 46ZM367.494 9.0625L362.619 9.125V21.8125H367.494C368.848 21.8125 370.025 21.1667 371.025 19.875C372.025 18.5625 372.525 16.8646 372.525 14.7812C372.525 13.1146 372.077 11.75 371.181 10.6875C370.285 9.60417 369.056 9.0625 367.494 9.0625ZM397.956 46H390.706C390.54 46 390.456 45.8958 390.456 45.6875L390.581 1.71875C390.581 1.55208 390.665 1.46875 390.831 1.46875H403.769C406.081 1.46875 408.206 2.03125 410.144 3.15625C412.081 4.28125 413.623 5.79167 414.769 7.6875C415.935 9.58333 416.519 11.7292 416.519 14.125C416.519 15.6875 416.279 17.1042 415.8 18.375C415.321 19.6458 414.758 20.7188 414.112 21.5938C413.487 22.4688 412.915 23.1146 412.394 23.5312C414.706 26.0938 415.862 29.1042 415.862 32.5625L415.925 45.6875C415.925 45.8958 415.821 46 415.612 46H408.362C408.196 46 408.112 45.9375 408.112 45.8125V32.5625C408.112 31.0208 407.571 29.6875 406.487 28.5625C405.404 27.4375 404.071 26.875 402.487 26.875H398.269L398.206 45.6875C398.206 45.8958 398.123 46 397.956 46ZM403.769 9.125H398.269V19.1875H403.769C405.081 19.1875 406.248 18.6979 407.269 17.7188C408.31 16.7396 408.831 15.5417 408.831 14.125C408.831 12.7708 408.331 11.6042 407.331 10.625C406.331 9.625 405.144 9.125 403.769 9.125ZM424.263 45.6875L432.2 1.71875C432.242 1.55208 432.346 1.46875 432.513 1.46875H441.794C441.96 1.46875 442.065 1.55208 442.106 1.71875L449.731 45.6875C449.752 45.8958 449.669 46 449.481 46H442.388C442.179 46 442.065 45.8958 442.044 45.6875L441.356 41H432.638L431.95 45.6875C431.929 45.8958 431.825 46 431.638 46H424.513C424.346 46 424.263 45.8958 424.263 45.6875ZM437.45 16.1875L437.075 13.8125L436.794 16.1875L433.919 34.1562H440.075L437.45 16.1875ZM473.788 46H466.038C465.85 46 465.746 45.8958 465.725 45.6875L458.163 1.71875C458.121 1.55208 458.183 1.46875 458.35 1.46875H465.538C465.704 1.46875 465.808 1.55208 465.85 1.71875L469.944 30.625L474.163 1.71875C474.204 1.55208 474.329 1.46875 474.538 1.46875H480.319C480.485 1.46875 480.59 1.55208 480.631 1.71875L484.788 30.625L488.944 1.71875C488.985 1.55208 489.09 1.46875 489.256 1.46875H496.381C496.59 1.46875 496.673 1.55208 496.631 1.71875L489.006 45.6875C488.985 45.7708 488.923 45.8438 488.819 45.9062L488.694 46H480.944C480.819 46 480.715 45.8958 480.631 45.6875L477.35 22.7188L474.1 45.6875C474.079 45.8958 473.975 46 473.788 46ZM513.75 46H507.344C507.01 46 506.844 45.8542 506.844 45.5625L506.781 1.96875C506.781 1.63542 506.948 1.46875 507.281 1.46875H513.062L523.875 26.6875L523.562 1.96875C523.562 1.63542 523.75 1.46875 524.125 1.46875H530.469C530.719 1.46875 530.844 1.63542 530.844 1.96875L530.906 45.625C530.906 45.875 530.802 46 530.594 46H524.969L513.875 22.4375L514.344 45.5C514.344 45.8333 514.146 46 513.75 46ZM540.713 45.6875L548.65 1.71875C548.692 1.55208 548.796 1.46875 548.963 1.46875H558.244C558.41 1.46875 558.515 1.55208 558.556 1.71875L566.181 45.6875C566.202 45.8958 566.119 46 565.931 46H558.838C558.629 46 558.515 45.8958 558.494 45.6875L557.806 41H549.088L548.4 45.6875C548.379 45.8958 548.275 46 548.088 46H540.963C540.796 46 540.713 45.8958 540.713 45.6875ZM553.9 16.1875L553.525 13.8125L553.244 16.1875L550.369 34.1562H556.525L553.9 16.1875Z" fill="white"/>
</svg>
